<svg xmlns="http://www.w3.org/2000/svg" width="16" height="16" fill="currentColor"><circle cx="2" cy="14" r="2" /><path d="M6 14a2 2 0 0 0 4 0c0-.214-.009-.425-.026-.636-.167-1.755-.794-3.253-1.941-4.65l-.063-.07c-1.513-1.5-3.193-2.392-5.325-2.616A7.364 7.364 0 0 0 2 6a2 2 0 1 0 0 4c.099 0 .197.004.295.013.921.051 2.097.699 2.73 1.338l-.009-.01c.487.58.92 1.55.971 2.355.009.101.013.202.013.304Z"/><path d="M12 14a2 2 0 0 0 4 0c0-.372-.015-.74-.046-1.106-.275-3.035-1.433-5.768-3.397-8.153l-.087-.097C9.881 2.07 6.774.41 3.115.049 2.746.017 2.375 0 2 0a2 2 0 0 0 0 4c.257 0 .511.011.765.034 2.448.188 5.051 1.605 6.76 3.317l.015.017c1.305 1.569 2.267 3.772 2.428 5.857.021.258.032.515.032.775Z"/></svg>
